<svg width="886" height="254" viewBox="0 0 886 254" fill="none" xmlns="http://www.w3.org/2000/svg">
<path fill-rule="evenodd" clip-rule="evenodd" d="M744.23 16H719.21V47.7H744.23V16ZM368.05 65.7199C375.08 67.9099 381.22 71.3799 386.3 76.0099L386.29 76.0299C391.34 80.4099 395.47 86.1 398.55 92.91C401.63 99.71 403.19 107.91 403.19 117.28V219.2H379.45V198.67C373.77 206.58 367.17 212.54 359.77 216.42C351.23 220.8 340.64 223.01 328.27 223.01C321.52 223.01 314.89 222.02 308.57 220.06C302.26 218.32 296.47 215.54 291.41 211.8C286.49 207.78 282.47 202.99 279.39 197.49C276.45 191.64 274.99 184.91 274.99 177.42C274.99 164.87 278.27 154.89 284.74 147.75C291.3 140.54 299.5 135.11 309.1 131.62C318.79 128.18 329.14 126 339.88 125.14C350.71 124.29 360.73 123.86 369.66 123.86H378.17V122.04C378.17 97.4799 366.33 85.5399 341.96 85.5399C325.14 85.5399 310.27 91.2599 297.76 102.53L296.23 103.91L280.98 85.9999L282.25 84.6899C296.59 69.92 318.29 62.4399 346.74 62.4399C354.13 62.4399 361.3 63.5399 368.05 65.7199ZM378.18 153.86V145.04H369.36C364.14 145.04 357.44 145.36 349.45 145.99C341.72 146.41 334.16 147.67 326.91 149.74C319.96 151.58 313.88 154.56 308.82 158.61C304.19 162.46 301.93 167.69 301.93 174.55C301.93 179.05 302.8 182.99 304.53 186.28C306.49 189.39 309.08 192.07 312.21 194.22C315.33 196.16 318.87 197.68 322.67 198.69C326.75 199.5 330.88 199.91 334.96 199.91C342.28 199.91 348.64 198.69 353.87 196.28C359.34 193.85 363.94 190.58 367.55 186.57C371.14 182.39 373.79 177.5 375.4 172.07C377.25 166.31 378.18 160.2 378.18 153.86ZM516.26 175.48C520.32 168.18 522.38 157.8 522.38 144.63V144.62V66.25H547.4V219.18H522.58L522.39 217.39C521.97 213.38 522.34 206.12 522.38 205.35V199C520.57 201.44 518.5 203.75 516.2 205.91C512.49 209.4 508.29 212.49 503.72 215.1C499.08 217.53 494.13 219.4 488.93 220.7C483.9 222.23 478.79 223 473.75 223C454.15 223 439.4 217.75 429.92 207.39C420.48 196.86 415.7 181.85 415.7 162.76V66.25H440.72V150.68C440.72 158.78 441.35 166.03 442.59 172.24C443.8 178.29 445.83 183.49 448.63 187.7C451.59 191.63 455.5 194.73 460.25 196.9C465.2 198.88 471.6 199.9 479.16 199.9C479.69 199.9 481.51 199.74 487.73 198.66C492.29 197.87 497.16 195.63 502.19 192.01C507.46 188.37 512.19 182.81 516.26 175.48ZM701.6 66.25H670.46L631.96 120.54L591.61 66.25H557.84L613.55 137.63L550.54 219.18H582.38L629.48 155.27L678.46 219.18H712.22L648.21 137.6L701.6 66.25ZM719.21 66.25H744.23V219.18H719.21V66.25ZM869.1 76.0099C874.15 80.39 878.28 86.08 881.36 92.89L881.35 92.91C884.43 99.72 885.99 107.91 885.99 117.28V219.2H862.25V198.67C856.57 206.58 849.97 212.54 842.57 216.42C834.03 220.8 823.44 223.01 811.07 223.01C804.32 223.01 797.69 222.02 791.37 220.06C785.06 218.32 779.27 215.54 774.21 211.8C769.29 207.78 765.27 202.99 762.19 197.49C759.25 191.64 757.79 184.91 757.79 177.42C757.79 164.87 761.07 154.89 767.54 147.75C774.11 140.54 782.3 135.11 791.91 131.62C801.6 128.18 811.95 126 822.69 125.14C833.51 124.29 843.53 123.86 852.46 123.86H860.97V122.04C860.97 97.4799 849.13 85.5399 824.76 85.5399C807.94 85.5399 793.07 91.2599 780.56 102.53L779.03 103.91L763.78 85.9999L765.05 84.6899C779.39 69.92 801.09 62.4399 829.54 62.4399C836.93 62.4399 844.1 63.5399 850.85 65.7199C857.88 67.9099 864.02 71.3799 869.1 76.0099ZM860.98 153.86V145.04H852.16C846.94 145.04 840.24 145.36 832.25 145.99C824.53 146.41 816.96 147.67 809.71 149.74C802.76 151.58 796.68 154.56 791.62 158.61C786.99 162.46 784.73 167.68 784.73 174.55C784.73 179.05 785.6 183 787.33 186.28C789.29 189.39 791.88 192.07 795.01 194.22C798.13 196.16 801.67 197.68 805.47 198.69C809.55 199.5 813.68 199.91 817.76 199.91C825.08 199.91 831.44 198.69 836.67 196.28C842.14 193.85 846.73 190.58 850.35 186.57C853.94 182.39 856.59 177.5 858.2 172.07C860.05 166.31 860.98 160.2 860.98 153.86Z" fill="black"/>
<path d="M38.4944 222.652H224.514V88.4843C205.857 111.294 178.157 135.137 137.127 155.882C87.0983 182.462 56.7477 205.406 38.4944 222.652Z" fill="url(#paint0_radial_39_1892)"/>
<path d="M211.462 24.1328C194.238 37.243 166.367 55.0996 121.461 78.2097C76.0286 101.591 45.9099 130.051 25.9951 157.212V24.1328H211.462Z" fill="url(#paint1_radial_39_1892)"/>
<path d="M250 0C250 0 250 26.0129 127.139 89.2421C4.27857 152.471 0 253.057 0 253.057C0 253.057 11.7233 208.435 131.418 144.866C250 84.9633 250 0 250 0Z" fill="url(#paint2_linear_39_1892)"/>
<g style="mix-blend-mode:overlay" opacity="0.3">
<path d="M0.179037 250.796C3.75178 235.696 24.3393 174.985 131.528 119.206C224.158 71.0038 244.864 26.1761 249.426 6.7583C246.608 28.0217 229.945 95.0942 131.418 144.866C11.7233 208.435 0 253.057 0 253.057C0 253.057 0.0334008 252.271 0.179037 250.796Z" fill="black" fill-opacity="0.67"/>
</g>
<defs>
<radialGradient id="paint0_radial_39_1892" cx="0" cy="0" r="1" gradientUnits="userSpaceOnUse" gradientTransform="translate(224.48 18.5509) rotate(133.148) scale(275.435 274.817)">
<stop offset="0.078125" stop-color="#9C60FF"/>
<stop offset="0.304703" stop-color="#9C60FF"/>
<stop offset="0.714976" stop-color="#2E81FF"/>
<stop offset="0.910282" stop-color="#0B4FFF"/>
</radialGradient>
<radialGradient id="paint1_radial_39_1892" cx="0" cy="0" r="1" gradientUnits="userSpaceOnUse" gradientTransform="translate(224.48 18.5509) rotate(133.148) scale(275.435 274.817)">
<stop offset="0.078125" stop-color="#9C60FF"/>
<stop offset="0.304703" stop-color="#9C60FF"/>
<stop offset="0.714976" stop-color="#2E81FF"/>
<stop offset="0.910282" stop-color="#0B4FFF"/>
</radialGradient>
<linearGradient id="paint2_linear_39_1892" x1="229.336" y1="30.8464" x2="28.9869" y2="171.807" gradientUnits="userSpaceOnUse">
<stop offset="0.106204" stop-color="#9C60FF"/>
<stop offset="0.535608" stop-color="#488BFF"/>
<stop offset="0.864583" stop-color="#00ADF7"/>
</linearGradient>
</defs>
</svg>
